HIERARCHY
ROOT Hips
{
	OFFSET 0.000000 0.000000 0.000000
	CHANNELS 6 Xposition Yposition Zposition Zrotation Yrotation Xrotation 
	JOINT LHipJoint
	{
		OFFSET 0.000000 0.000000 0.000000
		CHANNELS 3 Zrotation Yrotation Xrotation
		JOINT LeftUpLeg
		{
			OFFSET 1.363060 -1.794630 0.839290
			CHANNELS 3 Zrotation Yrotation Xrotation
			JOINT LeftLeg
			{
				OFFSET 2.448110 -6.726130 0.000000
				CHANNELS 3 Zrotation Yrotation Xrotation
				JOINT LeftFoot
				{
					OFFSET 2.562200 -7.039590 0.000000
					CHANNELS 3 Zrotation Yrotation Xrotation
					JOINT LeftToeBase
					{
						OFFSET 0.157640 -0.433110 2.322550
						CHANNELS 3 Zrotation Yrotation Xrotation
						End Site
						{
							OFFSET 0.000000 0.000000 0.000000
						}
					}
				}
			}
		}
	}
	JOINT RHipJoint
	{
		OFFSET 0.000000 0.000000 0.000000
		CHANNELS 3 Zrotation Yrotation Xrotation
		JOINT RightUpLeg
		{
			OFFSET -1.305520 -1.794630 0.839290
			CHANNELS 3 Zrotation Yrotation Xrotation
			JOINT RightLeg
			{
				OFFSET -2.542530 -6.985550 0.000000
				CHANNELS 3 Zrotation Yrotation Xrotation
				JOINT RightFoot
				{
					OFFSET -2.568260 -7.056230 0.000000
					CHANNELS 3 Zrotation Yrotation Xrotation
					JOINT RightToeBase
					{
						OFFSET -0.164730 -0.452590 2.363150
						CHANNELS 3 Zrotation Yrotation Xrotation
						End Site
						{
							OFFSET 0.000000 0.000000 0.000000
						}
					}
				}
			}
		}
	}
	JOINT LowerBack
	{
		OFFSET 0.000000 0.000000 0.000000
		CHANNELS 3 Zrotation Yrotation Xrotation
		JOINT Spine
		{
			OFFSET 0.028270 2.035590 -0.193380
			CHANNELS 3 Zrotation Yrotation Xrotation
			JOINT Spine1
			{
				OFFSET 0.056720 2.048850 -0.042750
				CHANNELS 3 Zrotation Yrotation Xrotation
				JOINT Neck
				{
					OFFSET 0.000000 0.000000 0.000000
					CHANNELS 3 Zrotation Yrotation Xrotation
					JOINT Neck1
					{
						OFFSET -0.054170 1.746240 0.172020
						CHANNELS 3 Zrotation Yrotation Xrotation
						JOINT Head
						{
							OFFSET 0.104070 1.761360 -0.123970
							CHANNELS 3 Zrotation Yrotation Xrotation
							End Site
							{
								OFFSET 0.000000 0.000000 0.000000
							}
						}
					}
				}
				JOINT LeftShoulder
				{
					OFFSET 0.000000 0.000000 0.000000
					CHANNELS 3 Zrotation Yrotation Xrotation
					JOINT LeftArm
					{
						OFFSET 3.362410 1.200890 -0.311210
						CHANNELS 3 Zrotation Yrotation Xrotation
						JOINT LeftForeArm
						{
							OFFSET 4.983000 -0.000000 -0.000000
							CHANNELS 3 Zrotation Yrotation Xrotation
							JOINT LeftHand
							{
								OFFSET 3.483560 -0.000000 -0.000000
								CHANNELS 3 Zrotation Yrotation Xrotation
								JOINT LeftFingerBase
								{
									OFFSET 0.000000 0.000000 0.000000
									CHANNELS 3 Zrotation Yrotation Xrotation
									JOINT LeftHandIndex1
									{
										OFFSET 0.715260 -0.000000 -0.000000
										CHANNELS 3 Zrotation Yrotation Xrotation
										End Site
										{
											OFFSET 0.000000 0.000000 0.000000
										}
									}
								}
								JOINT LThumb
								{
									OFFSET 0.000000 0.000000 0.000000
									CHANNELS 3 Zrotation Yrotation Xrotation
									End Site
									{
										OFFSET 0.000000 0.000000 0.000000
									}
								}
							}
						}
					}
				}
				JOINT RightShoulder
				{
					OFFSET 0.000000 0.000000 0.000000
					CHANNELS 3 Zrotation Yrotation Xrotation
					JOINT RightArm
					{
						OFFSET -3.136600 1.374050 -0.404650
						CHANNELS 3 Zrotation Yrotation Xrotation
						JOINT RightForeArm
						{
							OFFSET -5.241900 -0.000000 -0.000000
							CHANNELS 3 Zrotation Yrotation Xrotation
							JOINT RightHand
							{
								OFFSET -3.444170 -0.000000 -0.000000
								CHANNELS 3 Zrotation Yrotation Xrotation
								JOINT RightFingerBase
								{
									OFFSET 0.000000 0.000000 0.000000
									CHANNELS 3 Zrotation Yrotation Xrotation
									JOINT RightHandIndex1
									{
										OFFSET -0.622530 -0.000000 -0.000000
										CHANNELS 3 Zrotation Yrotation Xrotation
										End Site
										{
											OFFSET 0.000000 0.000000 0.000000
										}
									}
								}
								JOINT RThumb
								{
									OFFSET 0.000000 0.000000 0.000000
									CHANNELS 3 Zrotation Yrotation Xrotation
									End Site
									{
										OFFSET 0.000000 0.000000 0.000000
									}
								}
							}
						}
					}
				}
			}
		}
	}
}
MOTION
Frames: 9
Frame Time: 0.008333
-31.402699 17.450217 1.670520 80.482391 84.827063 74.482901 2.068335 -1.347417 0.329369 -22.680530 3.425924 13.823382 -2.033594 1.113547 2.284634 -0.754641 9.910985 -12.639904 0.782100 -5.646100 -15.760900 -4.343108 6.364794 -7.498836 10.531855 -13.451040 20.557537 -0.496007 -2.051862 1.607143 -0.513230 2.660481 -13.500806 -0.180100 -2.733200 7.536800 -6.015213 0.768560 8.132887 -0.304614 0.991481 -2.285935 -0.699652 0.168591 2.839299 -2.916850 -6.796037 -16.770106 7.307129 -8.634014 11.339212 0.190600 -3.045900 12.083600 5.680010 0.382922 -0.250637 -76.421172 -20.263142 39.022891 13.574005 -23.264730 -3.232699 0.263721 0.666871 11.301227 4.413933 -24.469269 -1.827100 -7.125000 0.000000 0.000000 -15.343400 5.477400 14.344800 -6.482882 1.065395 1.128237 77.666253 19.112605 43.445965 -20.288834 34.405440 -5.430132 0.694221 -2.189193 2.614263 -7.059752 -30.206940 3.716700 7.125000 0.000000 0.000000 24.501300 -56.452300 -7.180400 
-31.399213 17.448986 1.669392 78.089717 84.823129 72.166086 2.097117 -1.379471 0.308984 -22.708679 3.443014 13.830068 -2.039369 1.080463 2.207299 -0.765055 10.039844 -12.833759 0.763200 -5.578900 -15.567200 -4.321297 6.327733 -7.483189 10.541248 -13.393348 20.409059 -0.505247 -2.069816 1.646890 -0.510332 2.872585 -13.373220 -0.178000 -2.717300 7.492700 -5.828258 0.835894 7.852608 -0.321118 1.107612 -2.285573 -0.795136 0.216549 2.946559 -2.855187 -6.491195 -16.785983 7.331197 -8.224094 11.426235 0.250500 -2.853800 12.121300 5.671710 0.393166 -0.240627 -75.723698 -21.192596 39.226344 13.833374 -23.591055 -3.334745 0.261204 0.659246 11.186883 4.530867 -24.186030 -1.856600 -7.125000 0.000000 0.000000 -15.275300 5.748800 14.194300 -6.442259 1.015835 1.109415 77.210131 19.832256 43.259500 -20.473700 34.590845 -5.521738 0.715646 -2.186513 2.473324 -6.746997 -30.726154 3.636700 7.125000 0.000000 0.000000 25.169100 -56.862500 -7.649100 
-31.416954 17.448063 1.679339 79.512706 85.196827 73.658348 2.075452 -1.329541 0.337129 -22.189674 3.297014 13.606446 -2.027668 1.134704 2.389036 -0.743641 9.806192 -12.711919 0.710800 -5.388300 -15.019600 -4.391116 6.291118 -7.482116 11.275535 -13.187019 20.311629 -0.503211 -2.079887 1.633356 -0.509432 2.471107 -13.562455 -0.167000 -2.633000 7.258700 -5.455470 0.744057 7.870367 -0.276223 0.984435 -2.313949 -0.786074 0.152035 2.870976 -2.964420 -6.194812 -16.846781 7.473996 -7.760145 11.487600 0.419100 -2.643900 12.192600 5.662047 0.410691 -0.234747 -75.025367 -22.141915 39.476116 14.122073 -23.936018 -3.447833 0.263436 0.651279 11.128000 4.649307 -23.905437 -1.884200 -7.125000 0.000000 0.000000 -15.208600 6.017100 14.046700 -6.406882 1.009269 1.089794 76.706923 20.668229 43.100426 -20.616413 34.702217 -5.582312 0.732743 -2.172665 2.275108 -6.545858 -30.842445 3.558500 7.125000 0.000000 0.000000 25.454400 -56.939300 -7.792000 
-31.406494 17.451345 1.676160 74.226644 85.431025 68.433964 2.141454 -1.380633 0.291768 -21.906793 3.377324 13.772913 -2.030344 1.033784 2.189772 -0.782905 10.106478 -12.884033 0.707800 -5.377100 -14.987300 -4.382223 6.174141 -7.446987 11.737265 -12.947703 20.048202 -0.516484 -2.167428 1.820089 -0.508303 2.717213 -13.479738 -0.175100 -2.695900 7.433100 -4.987191 0.848595 7.569320 -0.257908 1.156269 -2.303574 -0.848833 0.211402 3.031837 -2.953542 -5.969008 -17.033257 7.458413 -7.437719 11.582851 0.456100 -2.498100 12.285800 5.665778 0.413852 -0.222261 -74.274411 -23.063446 39.813004 14.494279 -24.406858 -3.600236 0.274831 0.637948 10.630076 4.143263 -23.695539 -1.650200 -7.125000 0.000000 0.000000 -15.525900 6.273600 14.284000 -6.357565 0.945357 1.064462 76.205070 21.489820 42.906217 -20.737796 34.804055 -5.628000 0.751641 -2.151330 1.956719 -6.304928 -30.702320 3.431100 7.125000 0.000000 0.000000 25.599400 -56.783700 -7.742100 
-31.435207 17.450012 1.692773 77.054417 85.411858 71.326517 2.094084 -1.347204 0.335751 -21.632146 3.687124 13.183500 -1.999433 1.184721 2.564024 -0.725286 9.539469 -12.393224 0.789700 -5.672700 -15.837600 -4.420220 6.174454 -7.455992 12.020821 -12.603579 20.020493 -0.512660 -2.145235 1.794328 -0.510368 2.148023 -13.781897 -0.186600 -2.782100 7.672800 -5.165641 0.809164 7.776790 -0.252218 1.079448 -2.348282 -0.766517 0.182168 2.829228 -2.809248 -5.706150 -17.164276 7.401313 -7.110697 11.584896 0.415300 -2.346200 12.324500 5.665279 0.410976 -0.217225 -73.529803 -24.133695 39.699195 14.694977 -24.624959 -3.687140 0.310230 0.639832 10.587543 3.541869 -24.103012 -1.408800 -7.125000 0.000000 0.000000 -15.901900 5.922700 14.770400 -6.312403 0.945272 1.035274 75.805618 22.403309 42.543625 -20.810637 34.824239 -5.653200 0.770397 -2.134356 1.632240 -6.084347 -30.612024 3.319400 7.125000 0.000000 0.000000 25.756500 -56.672700 -7.723500 
-31.435310 17.454319 1.695029 75.982715 85.388227 70.199254 2.110248 -1.358049 0.321265 -21.766647 3.446537 13.453266 -2.017246 1.115678 2.391822 -0.769529 9.893492 -12.534252 0.774500 -5.619000 -15.683000 -4.410651 6.153007 -7.450525 12.062741 -12.526672 20.044787 -0.511507 -2.152267 1.811655 -0.504720 2.030564 -13.757841 -0.131000 -2.333300 6.427800 -5.087095 0.840919 7.750709 -0.256305 1.130698 -2.343582 -0.823748 0.202200 2.868405 -2.539893 -5.339062 -17.283034 7.301020 -6.685782 11.603678 0.341800 -2.146000 12.336700 5.672799 0.406337 -0.199600 -72.693040 -24.989210 39.930990 15.039255 -25.052670 -3.837193 0.326842 0.645076 10.436976 3.315251 -24.498679 -1.326200 -7.125000 0.000000 0.000000 -16.042000 5.553700 15.029300 -6.254828 0.891000 1.009275 75.372050 23.281927 42.241454 -20.907313 34.895005 -5.694787 0.794358 -2.120666 1.308962 -5.718328 -30.734892 3.162400 7.125000 0.000000 0.000000 26.205800 -56.721600 -7.903300 
-31.437771 17.459241 1.698516 75.915372 85.479688 70.128028 2.110536 -1.348846 0.324169 -21.666291 3.358552 13.487796 -2.018627 1.100521 2.367093 -0.770991 9.906217 -12.572686 0.783700 -5.651600 -15.776800 -4.430409 6.136159 -7.445629 12.280643 -12.489365 20.005752 -0.508771 -2.154128 1.797684 -0.498579 1.823132 -13.778865 -0.094200 -1.979600 5.449400 -4.952128 0.821974 7.692169 -0.231813 1.108356 -2.350966 -0.864766 0.186921 2.935964 -1.968942 -4.862233 -17.626845 6.996039 -6.201686 11.770247 0.079900 -1.893500 12.486200 5.703390 0.391115 -0.195605 -71.925481 -25.773242 39.848056 15.427107 -25.533751 -4.009675 0.349056 0.640132 10.417161 2.914051 -24.649146 -1.151600 -7.125000 0.000000 0.000000 -16.291300 5.442400 15.319700 -6.171567 0.831965 0.970191 74.885620 24.149151 41.932600 -21.079357 35.024150 -5.761898 0.827462 -2.101023 0.959255 -5.177063 -30.833846 2.921500 7.125000 0.000000 0.000000 26.807400 -56.720900 -8.102800 
-31.427824 17.466522 1.693388 72.131711 85.503582 66.356118 2.152160 -1.406384 0.286058 -21.553241 3.649698 13.536987 -2.012633 1.054019 2.276508 -0.776155 9.971183 -12.678894 0.825500 -5.796900 -16.196100 -4.415019 6.065654 -7.420550 12.356758 -12.442988 19.814822 -0.517933 -2.219196 1.946286 -0.501755 2.138997 -13.695435 -0.127900 -2.305100 6.349700 -4.695458 0.919559 7.464364 -0.238250 1.265683 -2.331292 -1.017787 0.249640 3.119554 -1.486338 -4.490278 -17.897054 6.762523 -5.839594 11.929623 -0.122900 -1.697100 12.616500 5.724577 0.382239 -0.182657 -71.203490 -26.690866 39.586422 15.732609 -25.905001 -4.147318 0.366912 0.632039 10.415586 2.518954 -24.646453 -0.973800 -7.125000 0.000000 0.000000 -16.536100 5.480200 15.558800 -6.102077 0.749260 0.935151 74.481724 25.049127 41.529051 -21.157963 35.091381 -5.804805 0.832289 -2.091039 0.869109 -5.066378 -30.938628 2.879000 7.125000 0.000000 0.000000 27.000800 -56.799700 -8.220100 
-31.468536 17.468881 1.711027 78.763541 85.461769 72.964191 2.067338 -1.320386 0.364068 -21.392580 3.774304 12.916348 -1.983781 1.273031 2.799339 -0.709971 9.330048 -12.122064 0.934400 -6.157400 -17.241800 -4.469852 6.142557 -7.447678 12.477853 -12.309060 19.909190 -0.501394 -2.186049 1.908536 -0.504591 1.362320 -14.146562 -0.116400 -2.199300 6.056800 -5.006647 0.779071 7.947473 -0.232907 1.035540 -2.391756 -0.945660 0.161472 2.786745 -1.159325 -4.217788 -18.089981 6.637822 -5.561120 12.027729 -0.251800 -1.540900 12.751800 5.722720 0.382024 -0.182548 -70.359307 -27.716260 39.429700 16.011197 -26.187352 -4.264498 0.387206 0.621984 10.086284 2.241479 -24.470094 -0.838200 -7.125000 0.000000 0.000000 -16.718400 5.678300 15.680800 -6.052888 0.780303 0.901469 74.090052 25.972968 41.196883 -21.254431 35.128781 -5.855851 0.823252 -2.088698 0.894251 -5.319049 -31.185329 3.021300 7.125000 0.000000 0.000000 26.946800 -57.067900 -8.380700 
